<?xml version="1.0" standalone="no"?>
<!DOCTYPE svg PUBLIC "-//W3C//DTD SVG 20010904//EN"
 "http://www.w3.org/TR/2001/REC-SVG-20010904/DTD/svg10.dtd">
<svg version="1.0" xmlns="http://www.w3.org/2000/svg"
 width="1920.000000pt" height="1080.000000pt" viewBox="0 0 1920.000000 1080.000000"
 preserveAspectRatio="xMidYMid meet">

<g transform="translate(0.000000,1080.000000) scale(0.100000,-0.100000)"
fill="#000000" stroke="none">
<path d="M1180 5555 l0 -3415 8480 0 8480 0 0 3415 0 3415 -8480 0 -8480 0 0
-3415z m16920 0 l0 -3375 -8440 0 -8440 0 0 3375 0 3375 8440 0 8440 0 0
-3375z"/>
<path d="M10260 7467 l0 -644 277 -7 c153 -4 632 -4 1065 0 l788 7 -2 641 -3
641 -1062 3 -1063 2 0 -643z m340 -2 l0 -625 -160 0 -160 0 0 625 0 625 160 0
160 0 0 -625z m1770 0 l0 -625 -460 0 -460 0 0 390 0 390 -140 0 -140 0 0 95
0 95 -135 0 -135 0 0 50 0 50 -140 0 -140 0 0 90 0 90 875 0 875 0 0 -625z
m-1490 -100 l0 -525 -125 0 -125 0 0 525 0 525 125 0 125 0 0 -525z m270 -50
l0 -475 -125 0 -125 0 0 475 0 475 125 0 125 0 0 -475z m280 -95 l0 -380 -125
0 -125 0 0 380 0 380 125 0 125 0 0 -380z"/>
<path d="M11380 7904 c0 -5 7 -44 15 -87 8 -43 15 -81 15 -85 0 -3 13 7 29 22
l28 27 239 -222 c131 -122 249 -231 261 -242 19 -16 25 -18 38 -7 8 7 15 16
15 20 0 4 -107 106 -237 227 -131 122 -247 230 -257 242 -19 21 -19 22 2 37
12 8 22 19 22 23 0 4 -33 15 -72 26 -40 10 -79 20 -85 23 -7 2 -13 0 -13 -4z"/>
<path d="M16048 7986 c-10 -7 -22 -25 -28 -40 -6 -18 -10 -242 -10 -647 0
-655 1 -666 45 -683 9 -3 127 -6 261 -6 l245 0 25 25 24 25 -2 651 -3 651 -24
19 c-21 18 -42 19 -270 19 -186 -1 -250 -4 -263 -14z m524 -23 c17 -15 18 -49
18 -656 0 -582 -2 -642 -17 -659 -15 -16 -37 -18 -264 -18 -245 0 -248 0 -263
22 -14 20 -16 98 -16 653 0 555 2 633 16 653 15 22 18 22 261 22 215 0 249 -2
265 -17z"/>
<path d="M2112 7720 c-12 -11 -24 -31 -27 -43 -3 -12 -5 -134 -3 -271 3 -247
3 -248 27 -267 22 -18 43 -19 337 -19 298 0 315 1 333 19 29 29 32 64 29 319
l-3 234 -28 24 -28 24 -308 0 c-295 0 -308 -1 -329 -20z m658 -20 c19 -19 20
-33 20 -269 0 -230 -1 -251 -19 -272 l-19 -24 -299 -3 c-292 -3 -300 -2 -326
18 l-27 21 0 255 c0 241 1 255 20 274 19 19 33 20 325 20 292 0 306 -1 325
-20z"/>
<path d="M3725 7715 l-25 -24 0 -259 c0 -247 1 -261 21 -286 l20 -26 320 0
c306 0 320 1 339 20 19 19 20 33 20 289 l0 270 -26 20 c-26 20 -38 21 -336 21
l-309 0 -24 -25z m659 -10 c24 -25 27 -65 24 -307 -3 -202 -5 -229 -21 -245
-16 -16 -45 -18 -305 -21 -158 -2 -297 0 -309 3 -52 13 -53 17 -53 292 0 225
2 259 17 275 15 17 38 18 324 18 263 0 310 -2 323 -15z"/>
<path d="M5335 7715 l-25 -24 0 -264 c0 -263 0 -264 23 -285 23 -22 29 -22
339 -22 l317 0 20 26 c20 25 21 39 21 286 l0 259 -25 24 -24 25 -311 0 -311 0
-24 -25z m657 -12 c17 -15 18 -37 18 -273 0 -205 -3 -260 -14 -276 -14 -18
-29 -19 -324 -19 -247 0 -312 3 -325 14 -15 12 -17 44 -17 274 0 228 2 263 17
279 15 17 38 18 321 18 270 0 308 -2 324 -17z"/>
<path d="M8543 7716 l-28 -24 -3 -224 c-4 -249 1 -301 29 -329 18 -18 36 -19
338 -19 l320 0 20 26 c20 25 21 39 21 276 0 260 -5 296 -45 312 -9 3 -153 6
-320 6 l-304 0 -28 -24z m661 -18 c14 -19 16 -63 16 -274 l0 -253 -27 -21
c-26 -20 -34 -21 -326 -18 l-299 3 -19 24 c-19 23 -20 39 -17 279 3 238 4 255
22 268 16 11 78 14 327 14 307 0 308 0 323 -22z"/>
<path d="M6952 7723 c-36 -14 -42 -56 -42 -303 0 -251 6 -288 45 -304 9 -3
156 -6 326 -6 294 0 310 1 329 20 11 11 22 30 25 42 3 13 5 135 3 272 -3 247
-3 248 -27 267 -22 18 -42 19 -335 18 -171 0 -317 -3 -324 -6z m652 -35 c13
-19 16 -62 16 -268 0 -206 -3 -249 -16 -268 -15 -22 -16 -22 -329 -22 -313 0
-314 0 -329 22 -13 19 -16 62 -16 268 0 206 3 249 16 268 15 22 16 22 329 22
313 0 314 0 329 -22z"/>
<path d="M14274 7515 l-25 -25 3 -266 c3 -266 3 -266 27 -285 22 -18 43 -19
335 -19 l313 0 21 23 c21 23 22 30 22 290 0 254 -1 268 -20 287 -19 19 -33 20
-335 20 l-316 0 -25 -25z m667 -12 c11 -13 14 -70 14 -275 0 -245 -1 -260 -19
-274 -16 -11 -78 -14 -327 -14 -307 0 -308 0 -323 22 -14 19 -16 62 -16 272 0
218 2 252 17 268 15 17 39 18 328 18 279 0 314 -2 326 -17z"/>
<path d="M16047 5708 c-9 -7 -21 -26 -27 -41 -14 -39 -14 -1245 0 -1283 20
-52 26 -53 291 -54 228 0 249 1 270 19 l24 19 3 651 2 651 -24 25 -25 25 -249
0 c-183 0 -252 -3 -265 -12z m525 -25 c17 -15 18 -49 18 -656 0 -582 -2 -642
-17 -659 -15 -16 -37 -18 -264 -18 -245 0 -248 0 -263 22 -14 20 -16 98 -16
653 0 555 2 633 16 653 15 22 18 22 261 22 215 0 249 -2 265 -17z"/>
<path d="M2120 5620 c-19 -19 -20 -33 -20 -289 l0 -270 26 -20 c26 -20 38 -21
334 -21 288 0 309 1 331 19 24 19 24 19 27 283 3 256 2 265 -18 291 l-21 27
-320 0 c-306 0 -320 -1 -339 -20z m654 -11 l26 -20 0 -253 c0 -211 -2 -255
-16 -274 -15 -22 -16 -22 -322 -22 -169 0 -312 4 -318 8 -30 19 -34 55 -34
281 0 127 4 241 10 256 5 14 20 30 32 35 13 5 152 9 309 9 275 1 287 0 313
-20z"/>
<path d="M3971 5614 c-20 -25 -21 -39 -21 -286 l0 -259 25 -24 24 -25 311 0
311 0 24 25 25 24 0 266 c0 252 -1 266 -20 285 -19 19 -33 20 -339 20 l-320 0
-20 -26z m649 3 l25 -13 3 -263 c2 -235 1 -266 -14 -283 -16 -17 -38 -18 -322
-18 -270 0 -308 2 -324 17 -17 15 -18 37 -18 272 0 141 4 261 8 267 20 30 52
33 332 34 210 0 292 -4 310 -13z"/>
<path d="M5814 5619 c-17 -19 -19 -42 -22 -272 -3 -268 1 -296 44 -316 17 -7
123 -11 324 -11 l299 0 28 24 28 24 3 234 c3 255 0 290 -29 319 -18 18 -35 19
-337 19 -311 0 -319 0 -338 -21z m667 -18 c18 -21 19 -42 19 -272 0 -236 -1
-250 -20 -269 -19 -19 -33 -20 -325 -20 -292 0 -306 1 -325 20 -19 19 -20 33
-20 274 l0 255 27 21 c26 20 34 21 326 18 l299 -3 19 -24z"/>
<path d="M7664 5629 c-40 -20 -44 -49 -44 -310 l0 -251 30 -29 29 -30 312 3
311 3 19 24 c18 22 19 42 19 286 0 244 -1 264 -19 286 l-19 24 -309 2 c-200 1
-315 -2 -329 -8z m642 -30 c18 -20 19 -39 19 -276 l0 -255 -24 -19 c-22 -18
-43 -19 -322 -19 -286 0 -300 1 -319 20 -19 19 -20 33 -20 275 0 242 1 256 20
275 19 19 33 20 323 20 296 0 304 -1 323 -21z"/>
<path d="M9471 5621 c-29 -29 -33 -65 -29 -320 l3 -233 28 -24 28 -24 307 0
c226 1 311 4 323 13 36 27 39 52 39 305 0 237 -1 251 -21 276 l-20 26 -320 0
c-303 0 -320 -1 -338 -19z m653 -12 l26 -20 0 -255 c0 -241 -1 -255 -20 -274
-19 -19 -33 -20 -323 -20 -246 0 -307 3 -323 14 -18 13 -19 30 -22 265 -3 263
0 284 41 301 12 5 151 9 308 9 275 1 287 0 313 -20z"/>
<path d="M11311 5614 c-20 -25 -21 -39 -21 -276 0 -260 5 -296 45 -312 9 -3
153 -6 319 -6 292 0 304 1 330 21 l26 20 0 270 c0 256 -1 270 -20 289 -19 19
-33 20 -339 20 l-320 0 -20 -26z m670 -13 c18 -21 19 -42 19 -263 0 -235 -4
-270 -34 -290 -6 -4 -149 -8 -318 -8 -306 0 -307 0 -322 22 -14 19 -16 63 -16
274 l0 253 27 21 c26 20 34 21 326 18 l299 -3 19 -24z"/>
<path d="M14274 5315 l-25 -25 3 -266 c3 -266 3 -266 27 -285 22 -18 43 -19
335 -19 l313 0 21 23 c21 23 22 30 22 290 0 254 -1 268 -20 287 -19 19 -33 20
-335 20 l-316 0 -25 -25z m667 -12 c11 -13 14 -70 14 -275 0 -245 -1 -260 -19
-274 -16 -11 -78 -14 -327 -14 -307 0 -308 0 -323 22 -14 19 -16 62 -16 272 0
218 2 252 17 268 15 17 39 18 328 18 279 0 314 -2 326 -17z"/>
<path d="M7034 4400 c-43 -17 -54 -48 -54 -146 0 -114 13 -135 86 -143 l49 -6
3 -47 3 -48 -75 0 -76 0 0 -550 0 -550 2685 0 2685 0 0 550 0 550 -2295 0
-2295 0 0 50 0 50 48 0 c39 0 53 5 73 26 20 22 24 38 28 105 2 49 -2 91 -9
110 -25 58 -31 59 -452 58 -211 0 -393 -4 -404 -9z m821 -35 c23 -22 25 -32
25 -110 0 -96 -13 -119 -72 -130 -18 -3 -199 -4 -401 -3 l-369 3 -19 24 c-15
19 -19 39 -19 109 0 74 3 89 22 109 l21 23 394 0 394 0 24 -25z m-135 -305 l0
-50 -290 0 -290 0 0 43 c0 24 3 47 7 50 3 4 134 7 290 7 l283 0 0 -50z m4600
-600 l0 -530 -2665 0 -2665 0 0 530 0 530 2665 0 2665 0 0 -530z"/>
<path d="M7100 4255 l0 -55 53 0 c28 0 57 4 63 8 14 10 15 85 1 94 -7 4 -36 8
-64 8 l-53 0 0 -55z m98 18 c2 -9 -8 -13 -32 -13 -26 0 -36 4 -36 16 0 19 61
16 68 -3z m-3 -43 c-3 -5 -19 -10 -36 -10 -16 0 -29 5 -29 10 0 6 16 10 36 10
21 0 33 -4 29 -10z"/>
<path d="M7262 4265 c-12 -25 -22 -50 -22 -55 0 -16 27 -12 34 5 3 8 16 15 30
15 13 0 26 -7 30 -15 3 -9 18 -15 36 -15 20 0 30 5 30 15 0 8 8 15 19 15 10 0
24 -7 31 -15 7 -8 21 -15 32 -15 16 0 18 3 10 13 -7 8 -7 18 -2 27 26 40 -4
70 -71 70 l-49 0 -1 -52 0 -53 -27 53 c-15 30 -33 52 -42 52 -9 0 -26 -20 -38
-45z m206 3 c3 -15 -4 -18 -32 -18 -30 0 -36 4 -36 21 0 17 5 20 32 17 22 -2
34 -9 36 -20z m-159 -17 c-15 -5 -22 6 -14 19 6 9 10 9 16 -1 5 -8 4 -15 -2
-18z"/>
<path d="M7510 4255 c0 -42 3 -55 15 -55 8 0 15 7 15 15 0 8 6 15 14 15 7 0
19 -7 26 -15 7 -8 21 -15 32 -15 17 0 18 3 9 14 -8 10 -9 16 -1 21 14 8 13 48
-2 63 -7 7 -34 12 -60 12 l-48 0 0 -55z m88 13 c3 -14 -3 -18 -27 -18 -25 0
-31 4 -31 21 0 16 5 20 27 17 17 -2 29 -10 31 -20z"/>
<path d="M7667 4255 c-21 -44 -24 -55 -12 -55 9 0 18 7 21 15 4 8 17 15 30 15
14 0 27 -7 30 -15 7 -17 34 -21 34 -5 0 24 -45 100 -60 100 -9 0 -27 -23 -43
-55z m53 4 c0 -5 -7 -9 -15 -9 -9 0 -12 6 -9 15 6 15 24 11 24 -6z"/>
<path d="M9570 3886 c0 -14 7 -29 16 -34 13 -7 16 -26 16 -92 l0 -84 -38 -26
c-46 -31 -80 -79 -94 -131 -6 -21 -9 -123 -8 -236 l3 -198 179 -3 c137 -2 181
1 188 10 14 22 9 358 -5 415 -17 66 -51 116 -99 145 l-37 23 -1 86 c0 79 2 87
21 92 15 4 20 12 17 29 -3 21 -8 23 -80 26 -77 3 -78 3 -78 -22z"/>
<path d="M9100 3575 c-10 -13 -11 -27 -1 -70 15 -66 55 -124 107 -150 l39 -21
6 -104 c4 -74 2 -109 -6 -118 -7 -7 -34 -17 -61 -21 -38 -7 -19 -9 81 -8 72 0
119 2 105 4 -14 2 -40 9 -57 14 -37 12 -38 14 -26 156 5 72 9 83 27 89 64 19
115 89 131 177 12 64 4 67 -175 67 -129 0 -160 -3 -170 -15z m324 -14 c12 -19
-16 -109 -45 -144 -60 -73 -158 -73 -218 0 -29 35 -57 125 -45 144 3 5 72 9
154 9 82 0 151 -4 154 -9z"/>
<path d="M9145 3488 c19 -62 68 -103 125 -103 57 0 106 41 125 103 l6 22 -131
0 -131 0 6 -22z"/>
<path d="M1850 3460 l0 -560 1385 0 1385 0 0 560 0 560 -1385 0 -1385 0 0
-560z m1160 318 c42 -45 11 -108 -54 -108 -59 0 -88 68 -46 110 27 27 74 26
100 -2z m484 0 c53 -75 -47 -153 -103 -82 -12 15 -21 32 -21 39 0 7 9 24 21
39 27 34 81 36 103 4z m-264 -322 c0 -165 -4 -307 -9 -315 -5 -8 -16 -11 -25
-8 -14 6 -16 42 -16 321 0 242 3 315 13 319 34 12 37 -10 37 -317z m-137 74
c31 -66 54 -126 51 -135 -10 -26 -42 -17 -59 16 -20 39 -29 33 -14 -10 13 -37
5 -81 -16 -81 -12 0 -15 -19 -15 -105 0 -93 -2 -105 -19 -115 -15 -7 -23 -6
-35 6 -12 12 -16 38 -16 115 0 131 -18 129 -22 -2 -3 -84 -6 -104 -20 -113
-13 -8 -23 -8 -35 0 -15 9 -18 28 -19 108 -2 80 -5 100 -20 110 -14 11 -16 22
-11 62 6 48 6 48 -9 22 -16 -30 -51 -38 -60 -14 -4 11 60 168 97 239 8 14 24
17 88 17 l78 0 56 -120z m479 13 c58 -124 64 -156 31 -161 -19 -3 -27 6 -47
50 l-24 53 -1 -182 c-1 -151 -4 -184 -17 -197 -12 -12 -20 -13 -35 -6 -17 10
-19 22 -19 125 0 96 -3 115 -15 115 -12 0 -15 -19 -15 -115 0 -98 -2 -115 -17
-124 -11 -6 -24 -6 -35 0 -16 9 -18 28 -19 202 l0 192 -27 -55 c-27 -55 -63
-78 -75 -48 -4 13 83 219 105 245 7 9 37 13 85 13 l74 0 51 -107z"/>
<path d="M4760 3460 l0 -550 1035 0 1035 0 0 550 0 550 -1035 0 -1035 0 0
-550z m2050 0 l0 -530 -1015 0 -1015 0 0 530 0 530 1015 0 1015 0 0 -530z"/>
<path d="M5279 3781 c-29 -29 -29 -31 -29 -143 0 -126 -9 -100 96 -268 25 -39
29 -56 32 -135 3 -99 -6 -127 -35 -109 -15 9 -18 28 -21 123 l-3 111 -34 0
-35 0 0 -126 c0 -125 0 -126 29 -155 24 -24 38 -29 76 -29 90 0 126 74 110
224 -7 66 -9 69 -102 216 -26 42 -28 52 -28 145 0 93 1 100 20 100 19 0 20 -8
23 -117 l3 -118 39 0 40 0 0 111 c0 157 -24 199 -116 199 -26 0 -44 -8 -65
-29z"/>
<path d="M5480 3765 c0 -33 2 -35 35 -35 l35 0 0 -335 0 -335 45 0 45 0 0 335
0 335 35 0 c33 0 35 2 35 35 l0 35 -115 0 -115 0 0 -35z"/>
<path d="M5756 3758 c-3 -24 -17 -176 -31 -338 -14 -162 -27 -310 -29 -328 -5
-33 -5 -33 32 -30 28 2 37 8 39 23 1 11 5 55 8 98 6 72 8 77 30 77 13 0 26 -4
29 -9 4 -5 9 -50 13 -100 l6 -91 38 0 c30 0 39 4 39 18 1 9 -14 176 -32 370
l-32 352 -53 0 -52 0 -5 -42z m69 -340 c7 -97 7 -98 -16 -98 -21 0 -22 2 -15
77 3 42 6 92 6 112 1 70 18 8 25 -91z"/>
<path d="M5950 3430 l0 -370 40 0 40 0 0 170 0 170 35 0 c32 0 35 2 35 30 0
28 -3 30 -35 30 l-35 0 0 135 0 135 45 0 c45 0 45 0 45 35 l0 35 -85 0 -85 0
0 -370z"/>
<path d="M6150 3430 l0 -370 40 0 40 0 0 170 0 170 35 0 c32 0 35 2 35 30 0
28 -3 30 -35 30 l-35 0 0 135 0 135 45 0 c45 0 45 0 45 35 l0 35 -85 0 -85 0
0 -370z"/>
<path d="M15152 3993 l-172 -3 2 -643 3 -642 1063 -3 1062 -2 0 645 0 645
-872 0 c-480 0 -882 2 -893 3 -11 2 -98 1 -193 0z m178 -648 l0 -625 -162 2
-163 3 -3 623 -2 622 165 0 165 0 0 -625z m1768 3 l-3 -623 -457 -3 -458 -2 0
395 0 395 -140 0 -140 0 0 90 0 89 -137 3 -138 3 -3 53 -3 52 -135 0 -134 0 0
85 0 85 875 0 875 0 -2 -622z m-1491 365 c-4 -38 -7 -276 -7 -531 l0 -463
-122 3 -123 3 -3 528 -2 527 131 0 132 0 -6 -67z m273 -518 l0 -475 -125 0
-125 0 0 475 0 475 125 0 125 0 0 -475z m278 -87 l-3 -383 -125 0 -125 0 -3
383 -2 382 130 0 130 0 -2 -382z"/>
<path d="M16061 3729 c-7 -12 -9 -25 -4 -29 4 -4 141 -85 303 -180 162 -95
296 -173 298 -175 2 -2 -4 -14 -12 -27 -9 -14 -13 -28 -9 -31 10 -10 163 -8
163 2 0 5 -11 33 -23 62 -13 30 -27 63 -31 74 -7 19 -9 18 -30 -9 -21 -25 -26
-27 -47 -16 -29 16 -546 318 -574 336 -18 12 -22 11 -34 -7z"/>
<path d="M12862 3853 c-36 -14 -42 -57 -42 -297 0 -138 4 -246 10 -262 21 -53
21 -53 358 -54 298 0 313 1 332 20 11 11 22 30 25 42 3 13 5 135 3 272 -3 247
-3 248 -27 267 -22 18 -42 19 -335 18 -171 0 -317 -3 -324 -6z m652 -35 c24
-33 24 -503 0 -536 -15 -22 -16 -22 -329 -22 -313 0 -314 0 -329 22 -13 19
-16 62 -16 268 0 206 3 249 16 268 15 22 16 22 329 22 313 0 314 0 329 -22z"/>
</g>
</svg>
