<?xml version="1.0" standalone="no"?>
<!DOCTYPE svg PUBLIC "-//W3C//DTD SVG 20010904//EN"
 "http://www.w3.org/TR/2001/REC-SVG-20010904/DTD/svg10.dtd">
<svg version="1.0" xmlns="http://www.w3.org/2000/svg"
 width="1920.000000pt" height="1080.000000pt" viewBox="0 0 1920.000000 1080.000000"
 preserveAspectRatio="xMidYMid meet">

<g transform="translate(0.000000,1080.000000) scale(0.100000,-0.100000)"
fill="#000000" stroke="none">
<path d="M1180 5555 l0 -3415 8480 0 8480 0 0 3415 0 3415 -8480 0 -8480 0 0
-3415z m16920 0 l0 -3375 -8440 0 -8440 0 0 3375 0 3375 8440 0 8440 0 0
-3375z"/>
<path d="M10430 7250 l0 -1210 2510 0 2510 0 0 1210 0 1210 -2510 0 -2510 0 0
-1210z m390 480 l0 -710 -185 0 -185 0 0 710 0 710 185 0 185 0 0 -710z m2000
0 l0 -710 -520 0 -520 0 0 445 0 445 -155 0 -155 0 0 105 0 105 -160 0 -160 0
0 60 0 60 -155 0 -155 0 0 100 0 100 990 0 990 0 0 -710z m2610 -5 l0 -715
-1290 0 -1290 0 0 715 0 715 1290 0 1290 0 0 -715z m-4300 -105 l0 -600 -145
0 -145 0 0 600 0 600 145 0 145 0 0 -600z m320 -60 l0 -540 -145 0 -145 0 0
540 0 540 145 0 145 0 0 -540z m310 -105 l0 -435 -145 0 -145 0 0 435 0 435
145 0 145 0 0 -435z m2967 -465 l703 0 0 -465 0 -465 -2490 0 -2490 0 0 472 0
471 1787 -6 c982 -4 2103 -7 2490 -7z"/>
<path d="M11649 8159 c-6 -12 -7 -25 -2 -29 4 -5 158 -96 342 -204 183 -107
336 -197 338 -200 3 -3 -4 -18 -16 -34 l-21 -30 101 -7 c55 -4 101 -6 103 -4
2 2 -15 46 -37 98 -37 85 -42 92 -53 75 -39 -57 -11 -68 -384 152 -190 112
-348 203 -352 204 -4 0 -12 -9 -19 -21z"/>
<path d="M13960 7750 l0 -260 55 0 c46 0 60 4 80 25 25 24 25 24 25 235 0 211
0 211 -25 235 -20 21 -34 25 -80 25 l-55 0 0 -260z m89 206 c8 -9 11 -74 9
-212 -3 -180 -5 -199 -20 -202 -17 -3 -18 12 -18 212 0 119 4 216 9 216 5 0
14 -6 20 -14z"/>
<path d="M14238 7778 c-3 -199 -5 -233 -18 -233 -12 0 -16 17 -18 78 l-3 77
-29 0 -30 0 0 -80 c0 -73 3 -83 25 -105 29 -30 74 -32 106 -6 24 19 24 21 27
260 l3 241 -30 0 -31 0 -2 -232z"/>
<path d="M11263 6760 c-36 -15 -43 -43 -43 -179 0 -128 0 -130 26 -150 24 -19
40 -21 164 -21 124 0 140 2 164 21 26 20 26 22 26 154 0 184 5 179 -177 182
-76 1 -148 -2 -160 -7z m295 -26 c21 -14 22 -22 22 -144 0 -104 -3 -132 -16
-144 -12 -13 -41 -16 -154 -16 -184 0 -185 1 -178 180 4 139 6 140 177 140 98
0 131 -3 149 -16z"/>
<path d="M12833 6760 c-36 -15 -43 -43 -43 -179 0 -128 0 -130 26 -150 24 -19
40 -21 164 -21 124 0 140 2 164 21 26 20 26 22 26 154 0 184 5 179 -177 182
-76 1 -148 -2 -160 -7z m295 -26 c21 -14 22 -22 22 -144 0 -104 -3 -132 -16
-144 -12 -13 -41 -16 -154 -16 -184 0 -185 1 -178 180 4 139 6 140 177 140 98
0 131 -3 149 -16z"/>
<path d="M14393 6760 c-36 -15 -43 -43 -43 -179 0 -128 0 -130 26 -150 24 -19
40 -21 164 -21 124 0 140 2 164 21 26 20 26 22 26 154 0 184 5 179 -177 182
-76 1 -148 -2 -160 -7z m295 -26 c21 -14 22 -22 22 -144 0 -104 -3 -132 -16
-144 -12 -13 -41 -16 -154 -16 -184 0 -185 1 -178 180 4 139 6 140 177 140 98
0 131 -3 149 -16z"/>
<path d="M16605 8365 l-25 -24 0 -826 0 -826 25 -24 24 -25 311 0 311 0 24 25
25 24 0 826 0 826 -25 24 -24 25 -311 0 -311 0 -24 -25z m657 -12 c17 -15 18
-54 18 -836 0 -749 -1 -822 -17 -839 -15 -17 -38 -18 -321 -18 -270 0 -308 2
-324 17 -17 15 -18 54 -18 836 0 749 1 822 17 839 15 17 38 18 321 18 270 0
308 -2 324 -17z"/>
<path d="M4661 8084 c-20 -25 -21 -39 -21 -276 0 -260 5 -296 45 -312 9 -3
153 -6 319 -6 292 0 304 1 330 21 l26 20 0 270 c0 256 -1 270 -20 289 -19 19
-33 20 -339 20 l-320 0 -20 -26z m670 -13 c18 -21 19 -42 19 -263 0 -235 -4
-270 -34 -290 -6 -4 -149 -8 -318 -8 -306 0 -307 0 -322 22 -14 19 -16 63 -16
274 l0 253 27 21 c26 20 34 21 326 18 l299 -3 19 -24z"/>
<path d="M6291 8084 c-20 -25 -21 -39 -21 -276 0 -260 5 -296 45 -312 9 -3
153 -6 319 -6 292 0 304 1 330 21 l26 20 0 270 c0 256 -1 270 -20 289 -19 19
-33 20 -339 20 l-320 0 -20 -26z m670 -13 c18 -21 19 -42 19 -263 0 -235 -4
-270 -34 -290 -6 -4 -149 -8 -318 -8 -306 0 -307 0 -322 22 -14 19 -16 63 -16
274 l0 253 27 21 c26 20 34 21 326 18 l299 -3 19 -24z"/>
<path d="M7961 8084 c-20 -25 -21 -39 -21 -276 0 -260 5 -296 45 -312 9 -3
153 -6 319 -6 292 0 304 1 330 21 l26 20 0 270 c0 256 -1 270 -20 289 -19 19
-33 20 -339 20 l-320 0 -20 -26z m670 -13 c18 -21 19 -42 19 -263 0 -235 -4
-270 -34 -290 -6 -4 -149 -8 -318 -8 -306 0 -307 0 -322 22 -14 19 -16 63 -16
274 l0 253 27 21 c26 20 34 21 326 18 l299 -3 19 -24z"/>
<path d="M2355 8075 l-25 -24 0 -826 0 -826 25 -24 24 -25 311 0 311 0 24 25
25 24 0 826 0 826 -25 24 -24 25 -311 0 -311 0 -24 -25z m657 -12 c17 -15 18
-54 18 -836 0 -749 -1 -822 -17 -839 -15 -17 -38 -18 -321 -18 -270 0 -308 2
-324 17 -17 15 -18 54 -18 836 0 749 1 822 17 839 15 17 38 18 321 18 270 0
308 -2 324 -17z"/>
<path d="M9281 6674 c-20 -25 -21 -39 -21 -276 0 -260 5 -296 45 -312 9 -3
153 -6 319 -6 292 0 304 1 330 21 l26 20 0 270 c0 256 -1 270 -20 289 -19 19
-33 20 -339 20 l-320 0 -20 -26z m670 -13 c18 -21 19 -42 19 -263 0 -235 -4
-270 -34 -290 -6 -4 -149 -8 -318 -8 -306 0 -307 0 -322 22 -14 19 -16 63 -16
274 l0 253 27 21 c26 20 34 21 326 18 l299 -3 19 -24z"/>
<path d="M4661 6084 c-20 -25 -21 -39 -21 -276 0 -260 5 -296 45 -312 9 -3
153 -6 319 -6 292 0 304 1 330 21 l26 20 0 270 c0 256 -1 270 -20 289 -19 19
-33 20 -339 20 l-320 0 -20 -26z m670 -13 c18 -21 19 -42 19 -263 0 -235 -4
-270 -34 -290 -6 -4 -149 -8 -318 -8 -306 0 -307 0 -322 22 -14 19 -16 63 -16
274 l0 253 27 21 c26 20 34 21 326 18 l299 -3 19 -24z"/>
<path d="M16621 6004 c-20 -25 -21 -39 -21 -276 0 -260 5 -296 45 -312 9 -3
153 -6 319 -6 292 0 304 1 330 21 l26 20 0 270 c0 256 -1 270 -20 289 -19 19
-33 20 -339 20 l-320 0 -20 -26z m670 -13 c18 -21 19 -42 19 -263 0 -235 -4
-270 -34 -290 -6 -4 -149 -8 -318 -8 -306 0 -307 0 -322 22 -14 19 -16 63 -16
274 l0 253 27 21 c26 20 34 21 326 18 l299 -3 19 -24z"/>
<path d="M10891 5694 c-20 -25 -21 -39 -21 -276 0 -260 5 -296 45 -312 9 -3
153 -6 319 -6 292 0 304 1 330 21 l26 20 0 270 c0 256 -1 270 -20 289 -19 19
-33 20 -339 20 l-320 0 -20 -26z m670 -13 c18 -21 19 -42 19 -263 0 -235 -4
-270 -34 -290 -6 -4 -149 -8 -318 -8 -306 0 -307 0 -322 22 -14 19 -16 63 -16
274 l0 253 27 21 c26 20 34 21 326 18 l299 -3 19 -24z"/>
<path d="M12791 5694 c-20 -25 -21 -39 -21 -276 0 -260 5 -296 45 -312 9 -3
153 -6 319 -6 292 0 304 1 330 21 l26 20 0 270 c0 256 -1 270 -20 289 -19 19
-33 20 -339 20 l-320 0 -20 -26z m670 -13 c18 -21 19 -42 19 -263 0 -235 -4
-270 -34 -290 -6 -4 -149 -8 -318 -8 -306 0 -307 0 -322 22 -14 19 -16 63 -16
274 l0 253 27 21 c26 20 34 21 326 18 l299 -3 19 -24z"/>
<path d="M14681 5694 c-20 -25 -21 -39 -21 -276 0 -260 5 -296 45 -312 9 -3
153 -6 319 -6 292 0 304 1 330 21 l26 20 0 270 c0 256 -1 270 -20 289 -19 19
-33 20 -339 20 l-320 0 -20 -26z m670 -13 c18 -21 19 -42 19 -263 0 -235 -4
-270 -34 -290 -6 -4 -149 -8 -318 -8 -306 0 -307 0 -322 22 -14 19 -16 63 -16
274 l0 253 27 21 c26 20 34 21 326 18 l299 -3 19 -24z"/>
<path d="M7191 5194 c-20 -25 -21 -39 -21 -276 0 -260 5 -296 45 -312 9 -3
153 -6 319 -6 292 0 304 1 330 21 l26 20 0 270 c0 256 -1 270 -20 289 -19 19
-33 20 -339 20 l-320 0 -20 -26z m670 -13 c18 -21 19 -42 19 -263 0 -235 -4
-270 -34 -290 -6 -4 -149 -8 -318 -8 -306 0 -307 0 -322 22 -14 19 -16 63 -16
274 l0 253 27 21 c26 20 34 21 326 18 l299 -3 19 -24z"/>
<path d="M6964 4440 c-43 -17 -54 -48 -54 -146 0 -114 13 -135 86 -143 l49 -6
3 -47 3 -48 -75 0 -76 0 0 -550 0 -550 1760 0 1760 0 0 550 0 550 -1370 0
-1370 0 0 50 0 50 48 0 c39 0 53 5 73 26 20 22 24 38 28 105 2 49 -2 91 -9
110 -25 58 -31 59 -452 58 -211 0 -393 -4 -404 -9z m821 -35 c23 -22 25 -32
25 -110 0 -96 -13 -119 -72 -130 -18 -3 -199 -4 -401 -3 l-369 3 -19 24 c-15
19 -19 39 -19 109 0 74 3 89 22 109 l21 23 394 0 394 0 24 -25z m-135 -305 l0
-50 -290 0 -290 0 0 43 c0 24 3 47 7 50 3 4 134 7 290 7 l283 0 0 -50z m2750
-600 l0 -530 -1740 0 -1740 0 0 530 0 530 1740 0 1740 0 0 -530z"/>
<path d="M7030 4295 l0 -55 53 0 c28 0 57 4 63 8 14 10 15 85 1 94 -7 4 -36 8
-64 8 l-53 0 0 -55z m98 18 c2 -9 -8 -13 -32 -13 -26 0 -36 4 -36 16 0 19 61
16 68 -3z m-3 -43 c-3 -5 -19 -10 -36 -10 -16 0 -29 5 -29 10 0 6 16 10 36 10
21 0 33 -4 29 -10z"/>
<path d="M7192 4305 c-12 -25 -22 -50 -22 -55 0 -16 27 -12 34 5 3 8 16 15 30
15 13 0 26 -7 30 -15 3 -9 18 -15 36 -15 20 0 30 5 30 15 0 8 8 15 19 15 10 0
24 -7 31 -15 7 -8 21 -15 32 -15 16 0 18 3 10 13 -7 8 -7 18 -2 27 26 40 -4
70 -71 70 l-49 0 -1 -52 0 -53 -27 53 c-15 30 -33 52 -42 52 -9 0 -26 -20 -38
-45z m206 3 c3 -15 -4 -18 -32 -18 -30 0 -36 4 -36 21 0 17 5 20 32 17 22 -2
34 -9 36 -20z m-159 -17 c-15 -5 -22 6 -14 19 6 9 10 9 16 -1 5 -8 4 -15 -2
-18z"/>
<path d="M7440 4295 c0 -42 3 -55 15 -55 8 0 15 7 15 15 0 8 6 15 14 15 7 0
19 -7 26 -15 7 -8 21 -15 32 -15 17 0 18 3 9 14 -8 10 -9 16 -1 21 14 8 13 48
-2 63 -7 7 -34 12 -60 12 l-48 0 0 -55z m88 13 c3 -14 -3 -18 -27 -18 -25 0
-31 4 -31 21 0 16 5 20 27 17 17 -2 29 -10 31 -20z"/>
<path d="M7597 4295 c-21 -44 -24 -55 -12 -55 9 0 18 7 21 15 4 8 17 15 30 15
14 0 27 -7 30 -15 7 -17 34 -21 34 -5 0 24 -45 100 -60 100 -9 0 -27 -23 -43
-55z m53 4 c0 -5 -7 -9 -15 -9 -9 0 -12 6 -9 15 6 15 24 11 24 -6z"/>
<path d="M8680 3906 c0 -14 7 -29 16 -34 13 -7 16 -26 16 -92 l0 -84 -38 -26
c-46 -31 -80 -79 -94 -131 -6 -21 -9 -123 -8 -236 l3 -198 179 -3 c137 -2 181
1 188 10 14 22 9 358 -5 415 -17 66 -51 116 -99 145 l-37 23 -1 86 c0 79 2 87
21 92 15 4 20 12 17 29 -3 21 -8 23 -80 26 -77 3 -78 3 -78 -22z"/>
<path d="M8210 3595 c-10 -13 -11 -27 -1 -70 15 -66 55 -124 107 -150 l39 -21
6 -104 c4 -74 2 -109 -6 -118 -7 -7 -34 -17 -61 -21 -38 -7 -19 -9 81 -8 72 0
119 2 105 4 -14 2 -40 9 -57 14 -37 12 -38 14 -26 156 5 72 9 83 27 89 64 19
115 89 131 177 12 64 4 67 -175 67 -129 0 -160 -3 -170 -15z m324 -14 c12 -19
-16 -109 -45 -144 -60 -73 -158 -73 -218 0 -29 35 -57 125 -45 144 3 5 72 9
154 9 82 0 151 -4 154 -9z"/>
<path d="M8255 3508 c19 -62 68 -103 125 -103 57 0 106 41 125 103 l6 22 -131
0 -131 0 6 -22z"/>
<path d="M1590 3580 l0 -560 1385 0 1385 0 0 560 0 560 -1385 0 -1385 0 0
-560z m1160 318 c42 -45 11 -108 -54 -108 -59 0 -88 68 -46 110 27 27 74 26
100 -2z m484 0 c53 -75 -47 -153 -103 -82 -12 15 -21 32 -21 39 0 7 9 24 21
39 27 34 81 36 103 4z m-264 -322 c0 -165 -4 -307 -9 -315 -5 -8 -16 -11 -25
-8 -14 6 -16 42 -16 321 0 242 3 315 13 319 34 12 37 -10 37 -317z m-137 74
c31 -66 54 -126 51 -135 -10 -26 -42 -17 -59 16 -20 39 -29 33 -14 -10 13 -37
5 -81 -16 -81 -12 0 -15 -19 -15 -105 0 -93 -2 -105 -19 -115 -15 -7 -23 -6
-35 6 -12 12 -16 38 -16 115 0 131 -18 129 -22 -2 -3 -84 -6 -104 -20 -113
-13 -8 -23 -8 -35 0 -15 9 -18 28 -19 108 -2 80 -5 100 -20 110 -14 11 -16 22
-11 62 6 48 6 48 -9 22 -16 -30 -51 -38 -60 -14 -4 11 60 168 97 239 8 14 24
17 88 17 l78 0 56 -120z m479 13 c58 -124 64 -156 31 -161 -19 -3 -27 6 -47
50 l-24 53 -1 -182 c-1 -151 -4 -184 -17 -197 -12 -12 -20 -13 -35 -6 -17 10
-19 22 -19 125 0 96 -3 115 -15 115 -12 0 -15 -19 -15 -115 0 -98 -2 -115 -17
-124 -11 -6 -24 -6 -35 0 -16 9 -18 28 -19 202 l0 192 -27 -55 c-27 -55 -63
-78 -75 -48 -4 13 83 219 105 245 7 9 37 13 85 13 l74 0 51 -107z"/>
<path d="M11331 4104 c-20 -25 -21 -39 -21 -276 0 -260 5 -296 45 -312 9 -3
153 -6 319 -6 292 0 304 1 330 21 l26 20 0 270 c0 256 -1 270 -20 289 -19 19
-33 20 -339 20 l-320 0 -20 -26z m670 -13 c18 -21 19 -42 19 -263 0 -235 -4
-270 -34 -290 -6 -4 -149 -8 -318 -8 -306 0 -307 0 -322 22 -14 19 -16 63 -16
274 l0 253 27 21 c26 20 34 21 326 18 l299 -3 19 -24z"/>
<path d="M14921 4104 c-20 -25 -21 -39 -21 -276 0 -260 5 -296 45 -312 9 -3
153 -6 319 -6 292 0 304 1 330 21 l26 20 0 270 c0 256 -1 270 -20 289 -19 19
-33 20 -339 20 l-320 0 -20 -26z m670 -13 c18 -21 19 -42 19 -263 0 -235 -4
-270 -34 -290 -6 -4 -149 -8 -318 -8 -306 0 -307 0 -322 22 -14 19 -16 63 -16
274 l0 253 27 21 c26 20 34 21 326 18 l299 -3 19 -24z"/>
<path d="M16621 4104 c-20 -25 -21 -39 -21 -276 0 -260 5 -296 45 -312 9 -3
153 -6 319 -6 292 0 304 1 330 21 l26 20 0 270 c0 256 -1 270 -20 289 -19 19
-33 20 -339 20 l-320 0 -20 -26z m670 -13 c18 -21 19 -42 19 -263 0 -235 -4
-270 -34 -290 -6 -4 -149 -8 -318 -8 -306 0 -307 0 -322 22 -14 19 -16 63 -16
274 l0 253 27 21 c26 20 34 21 326 18 l299 -3 19 -24z"/>
<path d="M13151 4084 c-20 -25 -21 -39 -21 -276 0 -260 5 -296 45 -312 9 -3
153 -6 319 -6 292 0 304 1 330 21 l26 20 0 270 c0 256 -1 270 -20 289 -19 19
-33 20 -339 20 l-320 0 -20 -26z m670 -13 c18 -21 19 -42 19 -263 0 -235 -4
-270 -34 -290 -6 -4 -149 -8 -318 -8 -306 0 -307 0 -322 22 -14 19 -16 63 -16
274 l0 253 27 21 c26 20 34 21 326 18 l299 -3 19 -24z"/>
<path d="M5771 4034 c-20 -25 -21 -39 -21 -276 0 -260 5 -296 45 -312 9 -3
153 -6 319 -6 292 0 304 1 330 21 l26 20 0 270 c0 256 -1 270 -20 289 -19 19
-33 20 -339 20 l-320 0 -20 -26z m670 -13 c18 -21 19 -42 19 -263 0 -235 -4
-270 -34 -290 -6 -4 -149 -8 -318 -8 -306 0 -307 0 -322 22 -14 19 -16 63 -16
274 l0 253 27 21 c26 20 34 21 326 18 l299 -3 19 -24z"/>
<path d="M4949 3982 c-161 -43 -278 -172 -309 -341 -23 -128 22 -265 119 -362
246 -246 654 -111 714 236 21 120 -22 253 -112 348 -57 60 -115 97 -130 82 -5
-6 -23 -44 -39 -85 -27 -67 -29 -77 -16 -95 32 -44 46 -90 41 -133 -17 -149
-220 -196 -297 -70 -62 102 -12 219 105 249 51 13 50 34 -1 25 -33 -7 -34 -5
-64 53 -34 69 -33 71 49 80 31 3 55 11 54 16 -4 16 -44 15 -114 -3z m-9 -101
l30 -60 -26 -20 -26 -20 -58 47 c-46 36 -56 49 -48 60 12 13 77 51 90 52 4 0
21 -27 38 -59z m341 22 c16 -10 29 -22 29 -28 0 -6 -22 -33 -50 -60 -37 -37
-53 -46 -61 -38 -9 9 -5 28 16 77 15 36 30 66 32 66 3 0 18 -8 34 -17z m-441
-90 c33 -25 60 -48 60 -49 0 -2 -5 -15 -12 -30 -12 -26 -13 -26 -83 -19 -38 3
-80 9 -92 12 -22 5 -22 6 -6 37 17 32 63 96 69 96 2 0 31 -21 64 -47z m551
-24 c17 -27 29 -52 27 -55 -3 -2 -32 -9 -64 -14 -145 -24 -163 -5 -78 81 65
66 65 66 115 -12z m-553 -104 c30 -5 32 -9 32 -44 l0 -38 -87 -17 c-49 -10
-96 -19 -105 -22 -15 -4 -18 1 -18 33 0 21 5 54 10 74 l10 36 63 -8 c34 -5 77
-11 95 -14z m610 -60 c5 -63 4 -67 -14 -62 -10 3 -58 13 -106 23 l-88 17 0 38
c0 35 3 39 33 44 81 14 153 21 161 14 4 -4 11 -37 14 -74z m-550 -74 l21 -29
-102 -77 -102 -76 -22 48 c-12 26 -24 64 -28 83 l-6 36 98 21 c54 11 103 21
109 22 5 1 20 -12 32 -28z m466 3 l88 -17 -6 -41 c-4 -22 -16 -60 -26 -84
l-20 -44 -52 38 c-93 65 -147 109 -148 117 0 4 7 19 17 33 11 18 22 24 37 20
12 -2 61 -12 110 -22z m-406 -62 c9 -6 -2 -39 -45 -130 -31 -67 -61 -122 -66
-122 -14 0 -77 51 -98 81 l-20 28 98 75 c101 77 109 81 131 68z m322 -64 c55
-40 99 -77 100 -82 0 -14 -98 -106 -113 -106 -7 0 -39 54 -72 120 -50 101 -57
122 -45 130 8 5 19 10 23 10 5 0 53 -33 107 -72z m-242 -105 l3 -143 -24 0
c-37 0 -128 30 -133 43 -2 7 21 66 51 131 49 101 59 117 78 114 21 -3 22 -8
25 -145z m139 20 l64 -122 -38 -16 c-21 -9 -59 -19 -85 -22 l-48 -6 0 140 c0
199 14 203 107 26z"/>
<path d="M4993 3740 c-49 -29 -62 -98 -28 -151 68 -105 234 -23 195 96 -23 71
-100 96 -167 55z m106 -15 c32 -16 41 -33 41 -79 0 -74 -98 -109 -146 -52 -33
38 -31 80 5 117 33 32 58 36 100 14z"/>
</g>
</svg>
