<svg id="Capa_1" data-name="Capa 1" xmlns="http://www.w3.org/2000/svg" viewBox="0 0 1265.83 726.23"><defs><style>.cls-1{fill:#020000;}</style></defs><path class="cls-1" d="M966,680.73v29.9l16.53-2c-3.23-3.16-4.2-5-5.27-5-6.26-.48-8.58-5.44-7.15-11,.66-2.55,5.83-4.25,9.18-5s7.41-.73,10.43.84,6.7,5.2,7,8.36c.95,9,.34,18.2.34,28h-50V681.06H910.43c0,6.69-.42,13.41.18,20,.31,3.37,2,8.7,3.88,9.27,3.39,1,7.44-.91,11.21-1.61-.08-1.14-.17-2.27-.26-3.41-2.16-.63-5.5-.51-6.25-2.06-1.81-3.74-2.41-8.26-3.49-12.47,6.89-.56,13.89-2.08,20.62-1.12,2.21.32,4.86,6.94,5.3,11,.85,7.65.25,15.51.25,24h-46.8v-44H859.79v29.73l13.6-1.6c.05-1,.11-2,.16-3.06-1.65-.88-3.58-1.39-4.89-2.73-2.11-2.16-5.47-5.06-5.27-7.28.25-2.78,3.36-7.06,5.6-7.4,6.56-1,13.31-.35,20.12-.35v37.07h-45V681.39H807.83v30l15-2.43c0-1.22-.07-2.43-.1-3.65-2.1-.56-4.67-.43-6.17-1.83-2.1-2-4.78-5.14-4.66-7.63s3.33-4.88,5.22-7.27c.14-.18.57,0,.87-.07,18.92-2.47,20.84-.47,20.83,21.77V725H792.21V680.6H756.09v29.82l14.81-2-.11-4c-2.07-.52-4.15-1-6.19-1.59-6.38-1.94-5.49-11-3.7-11.7a42.31,42.31,0,0,1,19.38-2.45c2.37.22,5.93,5.47,6.27,8.79.89,8.71.3,17.62.3,27.29H737.16V681H701.21v30.61l12.17-2.17c-3.39-6-9.37-12-8.45-15.87,2.14-8.92,10.42-3.92,16.08-5,3.08-.56,6.31-.1,10-.1v36.16H685.43V680.75h-36v29.41l15.44-2c0-1.29-.05-2.58-.08-3.86-2-.45-4.57-.19-6-1.52-2.35-2.17-5.14-5.19-5.5-8.21-.23-2,3.47-4.61,5.5-6.84.32-.34,1.14-.06,1.73-.1,18.6-1.29,26.83,12.93,18.77,32.92-.92,2.28-3.87,4.89-5.89,4.92-28.49.32-57,.21-86.21.21,0-10.26-.58-19.79.33-29.12.3-3.06,4.2-7.49,6.91-8,4.76-.9,10,.17,14.79,1.61,2.05.62,4.73,4.24,4.72,6.49,0,2-3.14,4.29-5.18,6-1.56,1.27-3.58,1.79-5.39,2.65-.08,1-.17,2-.25,3.06,3.56.83,7.55,3.14,10.56,2,2.32-.86,4.42-5.91,4.84-9.38.77-6.31.22-12.83.22-20.16H582.51v44.13H535.74c0-10.06-.36-20.14.28-30.14.14-2.16,3.74-5.46,6-5.74,6.31-.79,12.75-.28,19.54-.28v12.76l-11.48,5.78c12.09,7,16.78,4.3,17.35-8.29.19-4.42.07-8.86,0-13.29,0-1.3-.27-2.6-.49-4.49h-36.1v44.56c-15.31,0-29.69.59-44-.21-9.61-.54-7.26-10.54-6.72-16.69.64-7.31-5.5-18.54,5.84-21.23,6.43-1.53,13.35-.28,19.6-.28,4.3,11.68.4,16.3-9.68,16.67,3.56,9.7,9.35,5.29,14.69,5.4V680.54H475.81v45.27c-14.36,0-27.54,0-40.71,0-.87,0-2,.05-2.57-.53-7.67-8.43-3.66-19.14-3.41-28.8.07-2.72,5-6.85,8.2-7.55,5.62-1.24,11.58-.35,17.86-.35v13.37L444,706.43l.42,3,14.79.78V681.46H424.58V725H378.37V689.25h24.56v12l-10.14,3.89c0,1.17,0,2.34,0,3.51,3.61.7,7.67,2.87,10.7,1.63,2.39-1,4.54-5.94,5-9.45.8-6.28.23-12.79.23-19.94H373.33v43.64H325.52c0-9.73-.43-19.22.28-28.59.2-2.58,3.6-6.53,5.86-6.87,6.31-1,12.8-.33,19.76-.33v13.8l-9.84,2.67-.15,3.36c4.26.69,8.83,2.72,12.63,1.51,1.82-.58,2.72-7.23,3.08-11.25.51-5.66.13-11.42.13-17.74h-35.7v43.59H270.51c0-10.26-.41-20.7.32-31,.16-2.31,4.1-5.4,6.7-6.07,3.92-1,8.19-.23,12.32-.18s7.48,1,7.45,7.32c0,5.46-1.59,8.39-6.56,8.29a14.72,14.72,0,0,0-3.39.74c1.25,8.25,1.78,8.43,14,4.71V680.78H265.51V725H219c0-10.1-.42-19.9.29-29.59.18-2.44,3.73-5.84,6.19-6.49a30,30,0,0,1,13.16-.16c2.54.51,6.62,3.47,6.62,5.33,0,3-2.47,6.37-4.49,9-1.36,1.76-3.74,2.47-5.67,3.65l.22,3.06c3.7.42,7.76,2.07,11,.82,2-.79,3.59-5.82,3.91-9.13.61-6.34.17-12.82.17-20.05H214.29v43.43H163.62c0-10.38-.44-20.52.31-30.54.19-2.47,4-5.73,6.57-6.52,3.88-1.17,8.19-.42,12.31-.57s7.6.46,8,6.67c.38,5.89-1.41,9-6.74,9.44-1.47.11-2.87,1.62-4.3,2.5,0,1,0,2,0,3L194,711.05V680.28H159c0,11.84-.34,23.06.11,34.23.37,9.06-2.78,12-10.4,11.69-12-.54-24-.14-37-.14,0-10.9-.42-20.71.28-30.41.18-2.52,3.57-6.07,6-6.72,4.2-1.13,8.78-.5,13.19-.37,3.82.11,8.24-.25,8,6.44-.17,5.17-1.32,9.52-7.22,8.8-1.21-.15-2.55,1.11-3.84,1.73l-.36,2.92c4,.9,8.25,2.95,12,2.18,1.7-.35,3.28-6.25,3.6-9.79.58-6.32.16-12.77.16-19.75H108.16v43.75h-47V687.76c5.74,0,11.32-.59,16.75.22,3,.46,5.83,3.21,8.74,4.93-1.67,3.58-3.2,7.26-5.08,10.68-.69,1.25-2.22,1.87-3.36,5,3.78.3,8.1,2,11.15.4,1.91-1,2.38-6.85,2.66-10.61.42-5.66.11-11.39.11-17.66H55.92V725H9.13c0-10-.42-19.77.29-29.45.18-2.44,3.77-6.12,6.12-6.47,6-.93,12.26-.31,19.12-.31v13.41l-9.79,3.32-.3,3.56c3.67.77,7.52,2.64,11,1.9,2.06-.44,4.64-4.79,4.94-7.67.71-7,.23-14.18.23-22H4v43l-2.53.28C1,722.23.13,720,.1,717.65,0,706.74.16,695.83,0,684.93c-.09-6.44,2.53-9.58,7.89-9.65,9.72-.14,19.49-.73,29.13.3,2.75.29,6.15,5,7.37,8.58,1.33,3.86.54,8.73.52,13.16-.07,18.52-.54,19.3-16.26,18.37-3-.18-5.87-3.57-8.8-5.47,2.24-3.76,4.28-7.73,6.83-11.18.95-1.28,3.12-1.36,4.75-4.28-4.48,0-12.34-1.44-12.87.24-2.5,7.85-3,16.56-4.32,25.9H51.48c0-11.59.45-23.07-.14-34.49-.49-9.66,2.86-12.64,10.82-12.22,10.84.58,21.72.15,33.71.15,0,12.14.3,23.58-.28,35-.1,2-3.73,4.83-6,5.3a21.14,21.14,0,0,1-10.48-1c-2.57-.86-6.91-3.94-6.7-5,.7-3.55,3-6.79,5-9.86.92-1.42,2.6-2.19,4.28-3.52-11.88-4.86-14.36-3.06-14.56,9.88-.07,4.75,0,9.5,0,15.14h35.86c0-10.57.07-21.3,0-32-.08-11.36,1.45-13.33,11-13.32s18.86.26,28.28,0c4.6-.13,6.37,1.87,6.25,7.12-.18,8.17.3,16.38-.09,24.53-.38,7.8-3.87,11.93-11.15,10-1.71-.45-3.65-.13-5.21-.9-3-1.48-7.72-2.89-8.28-5.37-1.13-5-.76-11.2,5.89-12.32.74-.13,1.37-1.15,2.11-1.82-11.66-5.55-12.77-4.74-12.78,9.11,0,4.71,0,9.43,0,14.79h35.59c0-11.15.12-21.94,0-32.73-.15-11,1.6-13.18,11.1-13.14,10.84,0,21.68,0,33,0v39.56H175.88V700.08l9.53-3.87c0-.68,0-1.36,0-2l-13.86-1.86v27.93h38.56c0-11.21.39-22.33-.12-33.41-.41-8.77,2.09-12.47,10-12.09,11.12.53,22.28.13,34.59.13,0,12.43.23,23.88-.23,35.29-.08,1.91-3,4.71-4.94,5.23a21.94,21.94,0,0,1-10.53.15c-3-.73-7.76-2.88-8-4.91-.35-3.46,2-7.5,3.75-10.93.76-1.5,2.84-2.09,4.59-3.28-10.07-6.22-14.4-3.53-14.2,8.1.09,5,0,10.05,0,15.7h36.34c0-12.25.25-23.78-.09-35.28-.23-8,2.48-11.12,9.36-10.82,8.83.39,17.69.33,26.51,0,6.23-.26,9.39,2,9.12,9.86-.33,9.8-.08,19.62-.08,30.71-6.74,0-12.63.62-18.34-.3-2.32-.38-5.72-3.9-6-6.34-.26-2.66,2.09-6.4,4.2-8.42s5.19-2.26,7.69-5.81l-15.63-.91v27.55h37.94v-44h45c0,11.26.19,22.71-.2,34.13-.06,1.69-2.72,4.34-4.44,4.67-4,.76-8.21.33-12.33.47-8.53.27-6.27-7.78-8-13.88l13.37-6.09c-16.42-6.61-19.93-.64-16.2,25.5,9.19,0,18.6.69,27.83-.45,2.54-.31,6.13-5.86,6.52-9.41,1-8.72.64-17.69.27-26.53-.34-8.07,2.56-11,9.37-10.72,9.12.43,18.33-.45,27.37.65,3,.36,7.65,4.86,8,7.94,1,10.33.38,20.88.38,32.45-5.84,0-10.89.76-15.65-.27-3.11-.68-8.28-4.21-8.14-6,.3-4,3.17-7.83,5.46-11.32.85-1.28,3-1.4,5.09-2.25-11.74-6.29-16.07-3.33-16.19,10.3-.05,4.75,0,9.51,0,15.73,10.9,0,21.4.35,31.84-.39,1.55-.11,3.91-5.33,4-8.29.46-11.89.19-23.81.19-37.21,13.81,0,27.2-.22,40.56.3,1.53.06,4.1,4.19,4.2,6.55.47,10.47.21,21,.21,32.25H441.34c-4.18-10.86-.49-16.53,11.13-17.21l-2-3.1-14-1.44v28.47c9.35,0,18.48.71,27.43-.43,2.68-.34,6.54-5.58,6.95-9,1-8.7.72-17.68.35-26.51-.32-7.69,1.76-11.51,8.94-11.16,9.12.44,18.26.27,27.4.18,6.31,0,9.06,3.22,8.82,10.63-.29,9.17-.07,18.37-.07,29.52-7.23,0-14.12.32-21-.25-1.5-.13-4-3.57-3.91-5.28.23-3.29,1.34-7.32,3.36-9.39,2.17-2.24,5.8-2.58,8.78-6-4.59,0-12.56-1.57-13.2.28-2.81,8.06-3.5,17.12-5.26,27.66,13.49,0,24.88.41,36.22-.39,2-.13,5.06-5.27,5.21-8.26.61-11.81.25-23.69.25-36.21h43.54v38.74c-5.58,0-11.13.53-16.53-.24-2.46-.35-6.6-3.34-6.55-5,.09-3.23,2.26-6.7,4.23-9.43,1.3-1.8,3.76-2.48,5.69-3.67,0-.89-.11-1.79-.16-2.68l-13.59-1.71V721.1c9.67,0,19.59.58,29.37-.47,2.09-.22,5-6.24,5.29-9.83a232.76,232.76,0,0,0,.15-27.58c-.26-6.72,2.11-9.21,7.75-9.05,9.42.26,18.85.16,28.28.1,5.58,0,8.93,2.1,8.72,9.49-.28,9.83-.07,19.68-.07,31.12-6.07,0-11.66.75-17-.3-2.92-.57-7.53-4.14-7.57-6.43,0-3.27,3-7.2,5.52-9.72,1.74-1.74,4.91-1.55,7.43-4.4-5.15,0-14.11-1.7-14.78.3-2.6,7.77-2.55,16.71-3.58,26H672V692.79l-13.51,1.06v2.86l9.55,3V715c-5.83,0-11.69.69-17.32-.32-2.39-.43-4.38-4.35-6.37-6.87-.47-.59-.22-2-.22-3-.18-36.83-2.46-29.66,24.37-30.37,6.44-.17,12.89,0,20.17,0v45.17h35.78v-26.7l-16.33,1.32c3.3,2.93,4.35,4.66,5.33,4.61,6.94-.35,8.14,5.55,7.16,10.73-.51,2.66-5.15,5.43-8.23,6-5.11,1-10.47.27-16.59.27,0-11.65-.46-22.49.32-33.22.19-2.69,4.25-6.93,6.73-7.13,10.56-.83,21.19-.41,31.8-.46,4.48,0,6.06,2.5,6,7.66-.25,12.52-.08,25-.08,38.53,12.09,0,23.23.36,34.31-.34,2-.13,5-4.5,5.34-7.29.81-6.28.25-12.79.25-20H766.64c-.13.61-.25,1.22-.38,1.83,2.13,1.3,5.12,2,6.19,4a23.32,23.32,0,0,1,2.5,10.82c0,1.41-3.68,3.61-5.79,3.82-5.52.55-11.1.19-17.78.19,0-11.59-.37-22.4.29-33.13.14-2.36,3.86-6.22,6-6.33,12.3-.61,24.63-.29,37.78-.29v46.59c10.67,0,20.56.36,30.42-.15,5.39-.27,7.58-4.56,6.61-10.76-.26-1.68-.68-3.33-.82-5-1.14-13.31-1.13-13.31-13.76-9.25,2.13,1.53,4.18,2.2,5,3.75,1.85,3.47,3.92,7.32,4.14,11.15.08,1.45-4.56,3.74-7.29,4.77-2.15.81-4.68.15-7,.35-6.92.6-10.5-2.34-10.15-11.06.38-9.49.09-19,.09-29.56,13.4,0,26.26-.44,39.06.45,2,.14,5,6.27,5.18,9.8.66,11.46.25,23,.25,35.65,10.73,0,20.67.41,30.55-.34,2-.16,5.14-4.42,5.5-7.19.83-6.28.26-12.81.26-21.09l-15.19,1.47c4,4.19,8.42,7,10.36,11.25,2.28,5-.3,9.28-5.69,9.62-4.41.28-8.94.84-13.21,0-2.08-.44-3.73-3.87-5.47-6.06-.3-.38-.06-1.32-.09-2-1.55-31.62-.74-32.63,26.83-32.58,19.39,0,18.18-2.83,17.91,20.74-.1,8.42,0,16.84,0,26.22,10.62,0,20,.52,29.31-.36,2.41-.23,5.12-4.49,6.56-7.6a15.33,15.33,0,0,0,.55-9c-.88-3.79-2.19-9.14-4.61-10.34-3.11-1.55-7.5.36-11.45,2.38,5.26,3.26,13.22,2.21,10.92,12.48-.62,2.78-3.66,4.91-5.77,7.1-.49.51-1.71.09-2.59.07-18.49-.41-16.27,1.49-16.2-18.57,0-2.73.13-5.47,0-8.18-.53-10,3.68-14.38,12.12-14.25,8.25.13,16.51.22,24.75-.1,6.13-.24,8.49,2.8,8.36,9.75-.22,11.84-.06,23.7-.06,36.6,11.67,0,22.51.44,33.28-.37,2.22-.17,5.52-4.75,6-7.76.94-6.22.28-12.76.28-20.69l-15.6,1.7v2.5l9.77,2.83v14.36c-.67.43-1.2,1.1-1.66,1-6.77-.94-18.45-.1-19.36-3.33-2.78-9.82-1.67-21.22-1.38-32,0-1.71,3.66-4.64,5.68-4.71,12.32-.45,24.65-.23,37.78-.23v46.59c10.93,0,21.12.41,31.24-.37,1.86-.14,4.56-4.87,5-7.81.77-6,.23-12.17.23-18.56h-14.25c-.12.88-.25,1.75-.38,2.63l8.73,3.59v13.7c-.6.47-1.11,1.21-1.54,1.16-6.79-.85-18.51.12-19.44-3.07-2.84-9.8-1.82-21.22-1.58-32,0-1.76,3.7-4.81,5.75-4.89,12.28-.46,24.57-.22,37.91-.22v44.7h39.08V693.71h-13.22c-.16.78-.33,1.57-.49,2.35l9.09,4.3v13.51H1068.8v-39.3c12.71,0,25-.52,37.23.46,2.33.18,5.92,6.14,6.15,9.68.78,11.76.3,23.64.3,36.48,11,0,20.9.34,30.79-.3,2-.12,4.18-3.77,5.4-6.35.88-1.87.36-4.66.37-7,.08-14.65-2.45-16.64-17-10.71l11.23,4v14.06h-22.87V676.74h43.26v43.65h35.52V693.76H1182c7.75,5.45,19.1,5.54,11.77,19.52H1172V675.51h43.09V720h36.09V692.92l-13.46,1.41-.12,2.71,8.82,3.79v13.94c-1.14.45-2,1.13-2.74,1-6.53-.81-18-.17-18.69-3-2.51-10.4-1.62-22-1.53-33.07,0-1.43,2.82-4,4.37-4.06,12.57-.34,25.14-.19,38-.19v47.7l-1.55.1v-41.9h-37c0,7.93-.25,16,.19,24,.1,1.9,2.49,5.11,3.88,5.14,3.69.1,7.41-1.2,12.79-2.28-2.49-2.77-2.85-3.52-3.34-3.66-4.59-1.32-10.72-.58-9.67-9.48,1-8.59,7.22-6.63,11.8-7.15,13.21-1.5,15.52,1.07,15.73,16.58.09,6.73,0,13.47,0,21.14-14.09,0-27.29.57-40.39-.51-2.46-.2-6.14-6.81-6.45-10.76-.89-11.05-.31-22.26-.31-34h-35.07v28.35c4.83.82,10.23,5.11,14.56-4.19-1.85-.72-3-.9-3.85-1.55-2.52-1.89-4.93-4-7.39-6,2.63-3.12,4.88-8.15,8-9,5.55-1.47,11.6-.42,18.11-.42v36.94H1160.4v-43.6h-35.52v30.45l16-2.45c-3.06-2.75-3.84-4-4.78-4.2-5.88-1.1-9.68-5.05-7.4-11.56.95-2.72,6.57-4.63,10-4.5,5.23.19,14.37,1.46,14.87,4.07,1.79,9.28,1,19.36.24,29-.12,1.56-4.75,3.71-7.34,3.79-12.06.41-24.13.18-37.22.18V680.37h-36.41v30l14.4-1.38.3-3.17c-2.21-1.07-4.93-1.55-6.49-3.37-2-2.28-4-5.66-4-8.55,0-2.07,3.37-4.12,5.27-6.14.17-.19.58-.15.86-.1,6.43,1.33,17.14.68,18.44,4.41,3,8.5,1.67,19.17,1.2,28.91-.08,1.75-4.43,4.54-6.86,4.62-13.52.45-27.05.21-41.68.21V681.19h-36.59v29.94l14.86-1.75c0-1.15,0-2.3,0-3.45-1.45-.71-2.9-2-4.35-2-5,0-7.59-3.26-6.34-8.26.73-2.91,4-5.75,6.75-7,2.86-1.28,6.39-.65,9.63-.75,6.88-.21,10.43,3.57,10.38,11.68s0,16.27,0,25.22h-46.14V680.73Z"/><path class="cls-1" d="M376.12,527.84c.53,1.46.57,1.95.76,2,25.76,12.25,25.84,12.45,25.89,44.75,0,8.17-.08,16.4.73,24.48.77,7.65,2.68,15.14,4.27,23.7-16,0-31.27.27-46.49-.12-6.75-.18-8.61-6.67-9-13-1.15-17.6-2.13-35.23-2.6-52.87-.35-13.17-2.7-16-15.16-14.4V623c-16.61,0-32.4.39-48.16-.19-6.39-.23-7.31-6.38-7.27-12.78q.36-53.62.44-107.26c0-14,.07-27.93-.1-41.89-.08-6,1.51-10.46,7.18-10.34,32.27.69,64.8-3.67,96.56,7,14.69,4.93,18.78,12.29,20.11,29.93C405.06,511.32,395.08,523.47,376.12,527.84ZM335,517.46c10.94,1.65,14.1-1,14.65-12.55a166.73,166.73,0,0,0-.08-18.3c-.73-11.56-4.61-14.2-14.57-10.33Z"/><path class="cls-1" d="M240.47,530.59c4.25,1.82,7.48,3.27,10.75,4.61,13.48,5.5,16.45,9.69,17.1,25.76.38,9.18.47,18.4.12,27.58-.44,11.89-5.07,21.45-15.14,25.1s-20.37,7.29-30.69,7.75c-24.91,1.11-49.89.36-75.75.36,0-27.06-.1-53.17.18-79.28,0-2.26,2.56-4.48,3.24-5.6-1.35-5.64-3.6-10.91-3.7-16.24-.36-19.74,0-39.5,0-59.25,0-5.67.69-10.76,6.72-10.64,31.4.62,63-3.73,93.93,6.75,14.57,4.94,19.18,11.65,19.48,29.24.05,2.73,0,5.45,0,8.18-.11,20.5-2.89,25.13-19.49,32.58C245.35,528.34,243.45,529.23,240.47,530.59Zm-38.14,10.82v57.18c9.19,2.27,12.88-2.46,13-11.75.12-11.57.27-23.15-.13-34.7C214.83,541.9,212.26,540,202.33,541.41ZM202,475.48v42.9c9.93,1.13,12.73-1.27,13.22-11.79.32-6.74.31-13.53,0-20.27C214.79,476.11,212.19,474,202,475.48Z"/><path class="cls-1" d="M997.34,537.77c0-17.35-.13-34.71,0-52.07.15-16.06,5.52-24.53,18.8-29.33,28.65-10.36,57.39-9.95,86,.15,11.36,4,17.21,12.47,17.33,26.32.32,36.07.19,72.15.06,108.22,0,12.69-5.65,21.21-16,25.22-30,11.58-60.11,11.69-90.19.72-10.94-4-15.72-11.74-15.92-25.11-.26-18-.06-36.08-.06-54.12Zm52.86-1.28h.1c0,17,.11,34-.06,51.06-.06,6.8.53,12.53,8.11,12.3,7-.21,8.56-5.09,8.53-12.29-.17-34-.09-68.07,0-102.11,0-6.3-.46-11.71-7.69-11.72-7,0-9.09,4.33-9,11.7C1050.31,502.45,1050.2,519.47,1050.2,536.49Z"/><path class="cls-1" d="M563.09,622.93c-15.83,0-31.39.39-46.91-.39-2.58-.13-6.23-4.82-7.22-8.25a192.17,192.17,0,0,1-5.16-25.8c-1.13-7.67-3.35-12.65-11.26-11.78-7.06.77-15.18-2.27-16.47,10.84a142.36,142.36,0,0,1-5,25.81c-1.1,3.78-4.77,9.13-7.46,9.28-15.74.88-31.53.43-48.43.43,8.87-38.23,17.38-74.92,25.9-111.61,3.81-16.41,7.85-32.76,11.37-49.26,1.76-8.25,5.61-12.11,13-12,16.77.3,33.55.38,50.33.35,5.22,0,9.21,1.36,10.72,7.95q18.39,80.36,36.84,160.67C563.52,619.8,563.29,620.5,563.09,622.93ZM496.5,551.6c-2-15-3.76-28.59-5.54-42.14l-1.92-.09-5.85,43.54Z"/><path class="cls-1" d="M861,622.91c-16,0-31,.46-45.89-.37-3-.17-7.34-4.56-8.42-8.09-2.74-8.91-4.26-18.37-5.69-27.73-1-6.82-3.71-10.41-9.9-10.12-6.54.31-14.23-2.32-16.62,8.48q-3.06,13.83-5.58,27.8c-1.08,6-3.41,10.2-9.19,10.23-15.27.06-30.53,0-47,0,6.21-27.06,12.1-52.91,18.09-78.73,6.24-26.92,12.84-53.74,18.71-80.76,2.07-9.54,5.92-13.74,14.63-13.4,16.47.62,33,.5,49.45.39,5.4,0,8.89,1.77,10.39,8.3q18.19,79.35,36.59,158.64A45.74,45.74,0,0,1,861,622.91Zm-80.31-71.6h13.49c-2-14.38-3.93-28-5.83-41.55l-1.72-.11C784.69,523.24,782.75,536.83,780.69,551.31Z"/><path class="cls-1" d="M639.15,565c5.33-34.79,10.51-67,15.09-99.38,1.48-10.45,4.9-15.61,14.83-15,13.12.84,26.32.2,40.65.2-4,21.49-7.7,41.67-11.56,61.8-6.24,32.55-12.83,65-18.73,97.62-1.7,9.42-5.36,13.25-13.71,13.05q-28.26-.66-56.53,0c-7,.16-10-3.18-11.38-10.75-9.28-49.52-18.81-99-28.21-148.47-2.4-12.6-1.18-14,10.16-13.81,10,.19,20,.35,30-.13,8.07-.38,11.53,3.6,12.8,12.71,4.45,31.91,9.41,63.72,14.23,95.55C637,560,637.79,561.31,639.15,565Z"/><path class="cls-1" d="M579.18,20.12c-7.61,2.27-14.49,4.11-21.24,6.44-4.16,1.43-8.42,1.89-8.9-4-.24-3,2.62-8.21,5.1-9.29,8.79-3.81,18-6.37,27.08-9.22,5.74-1.79,8.85.72,9.7,7.8C591.9,20,593.31,28,595,35.92c.56,2.67,2.57,7.09,3.82,7a160.43,160.43,0,0,0,25.26-2.87c1.55-.3,3.32-4.66,3.55-7.32.53-6,.17-12.09.17-18.47-8.12,0-15.44.6-22.62-.29-2.94-.37-5.58-4-8.36-6.08,2.48-2.62,4.91-7.41,7.46-7.5C623.94-.19,643.64,0,663.33.12c4.52,0,7.9,2.91,6.27,8.26-.78,2.53-4.69,5-7.35,5.29-7,.74-14,.25-21.32.25a39.86,39.86,0,0,0-.77,4.52c-.86,21,7.34,29.14,25.12,24.21,2.67-.74,5.68-4.85,6.57-8.12,2-7.41,2.8-15.28,4.12-23C677.1,5,680.3,2.14,686.13,4.11c9,3.06,18,6.5,27.14,9.06,5.42,1.52,5.88,5.8,4.29,9.86-.83,2.1-4.84,3.56-7.37,3.47-4-.15-8.14-1.49-12.05-2.94-6.41-2.37-11.12-2.73-13,7.1-2.72,14.29-2.42,16.26,6.9,19.75,20.48,7.67,20.49,7.67,29-15.66,1-2.83,1.89-5.72,2.91-8.55,2.13-5.89,5.45-7.39,10.53-4.28,8.32,5.1,17,9.44,25.08,15,2.13,1.47,2.55,6.25,3.75,9.52-3.21.94-6.93,3.56-9.52,2.49-6.83-2.81-13.16-7.24-19.26-10.77-1,.62-1.32.7-1.44.94C722.48,61.23,725.92,70.72,747.54,77c2.55.73,7.11-2.36,9-5.22,5.55-8.32,10.23-17.42,15.87-27.3,9.92,9.12,19.69,17.68,28.89,27,1.56,1.58,1.7,7,.59,9.45-.7,1.57-5.6,2.41-7.44,1.19a81.86,81.86,0,0,1-13.35-11.69C777,66.1,774.29,67.14,771,71.76c-9.4,13-9.39,15.45,1.64,26.49,2.45,2.46,4.95,4.85,7.44,7.24,4.07,3.9,8,3.75,11.79-.56,4.18-4.8,8.35-9.62,12.43-14.53,5.09-6.11,10-6.52,14.91.25,5.69,7.82,11.68,15.37,17,23.5,1.37,2.09.74,5.94,1,9-3,.11-6.58,1.52-8.71,0-3.4-2.36-5.89-6.54-8.6-10.13-7.22-9.55-9-9.79-17.2-1.6-2.87,2.86-5.59,5.93-8.69,9.24,5.11,7.29,10,14,14.64,21,4.09,6.06,8.62,6.22,13.83,2.13s10.83-8.23,16.21-12.4c4.71-3.65,8-2.49,10.71,3.32,4.29,9.3,8.82,18.46,13.4,27.57,2.42,4.82,2.84,9-1.87,12.14s-7-.47-8.89-4.7c-.41-.9-.87-1.77-1.29-2.67-10.11-21.33-6.07-24.83-29.15-4.89,3.8,8.53,7.18,17.57,11.81,25.65,1.38,2.41,6.63,3.71,9.45,2.8,7-2.28,13.75-6,20.49-9.38,4.57-2.3,7.28-.87,8.69,4.59,2.71,10.43,6.08,20.69,7.93,31.31.58,3.37-2.79,7.66-4.36,11.54-2.19-2.54-5.26-4.63-6.4-7.69-2.75-7.41-4.6-15.27-6.8-22.88-22.8,7.17-22.8,7.17-16.3,32.15.72,2.76,1.27,5.59,1.89,8.39l-2.19,1c-1.29-3.65-2.74-7.25-3.86-11-11.44-37.95-27-73.29-50.08-103.63C749.65,69.58,695.22,47.48,632.65,48c-56.06.44-106.21,18.83-147,65.09-28.83,32.65-47.07,72.77-60.24,116.34-.91,3-2,6-3,9l-2.34-.84c1.69-7,3-14.17,5.18-20.93,2.14-6.49,1.16-10.33-4.73-12.46-5-1.81-9.83-4.08-15.55-6.5-2.57,8.72-4.48,16.91-7.47,24.54-1.12,2.83-4.76,4.34-7.26,6.45-1.44-3.46-4.6-7.38-4-10.3,2.17-10.9,5.53-21.49,8.5-32.18,1.55-5.59,4.42-7.57,9.44-5,6.44,3.33,13.12,6.07,19.56,9.41,5.55,2.87,9.26,2.17,11.91-5,2.86-7.75,6.67-15,9.94-22.27-.26-.72-.3-1.11-.5-1.31-17.26-17.46-17.59-17.39-29.16,5.57-5.2,10.3-6.16,10.44-14.82,1.39,5.71-11.56,11.17-23.57,17.61-34.85,1.3-2.27,7-3.46,9.43-2.14,6.36,3.4,12.25,8.14,17.92,13,4.82,4.12,8.37,3.69,11.94-1.77,4.77-7.3,9.77-14.39,14.47-21.27a8.12,8.12,0,0,0-.56-1.63c-18.71-21.91-17.88-18.61-29.89.44-2.64,4.17-5.55,8.63-10.77,3.82s-2.18-8.89.75-12.94c5.68-7.84,11.53-15.51,17.09-23.46,3.91-5.59,7.53-5.59,11.64-.39,4.58,5.77,9.45,11.24,14,17,3.88,5,8.82,8.24,12.23,1.32,4.38-8.89,22.39-8.33,13.87-25.95-2.27-4.71-5.45-8.83-8.92-14.35-6,5.25-11.74,10.26-17.46,15.35-3.57,3.19-7,5.18-10.65,0-3.93-5.6-.31-8.7,2.95-11.67,6.7-6.13,13.61-11.94,20.31-18.07,5.39-4.93,9.79-3.65,13.39,2.55,3.28,5.65,6.5,11.37,9.37,17.31,3.55,7.34,7.81,9.81,14.22,4.34a52.23,52.23,0,0,1,6.9-4.53c12.38-7.61,12-7.41,7-22.4-3-9.21-7.35-10.42-14.12-6-3.32,2.2-6.53,5.18-10.12,6.09-3,.74-6.39-1-9.62-1.71,1.13-3.57,1.34-8.9,3.53-10.41,8.31-5.75,17.27-10.23,26-15.25,4.79-2.77,7.8-.91,9.71,4.56C546,34,549.1,41.7,551.6,49.68c1.94,6.24,5,7.81,10.19,5.23a57.56,57.56,0,0,1,7.56-2.8c15.83-5.29,15.84-5.28,11.77-24.24C580.63,25.59,580,23.35,579.18,20.12Z"/><path class="cls-1" d="M925.61,474c-16.46,0-31.18-.3-45.89.13-7,.2-9.18-2.76-9.29-10.74-.1-7.75,1.11-12.94,8.68-12.92,33,.12,66,.4,99,.47,5,0,7.41,2.86,6.45,8.11-1.78,9.85-2.83,20.37-6.69,29.14-14.93,34-30.86,67.34-46.39,100.95-1.35,2.94-2.54,6-4.52,10.68,4,.25,6.71.56,9.45.57,14.73.06,29.47.09,44.2,0,5.08,0,8.49,1.09,8.2,8.49-.26,6.64.86,13.5-7.43,14.22-.59,0-1.18.08-1.77.08-35.36-.09-70.72-.08-106.07-.55-2,0-5.85-4.39-5.61-6.16,1.37-10.22,2.06-21.23,6-30.19,15-33.94,31.09-67.19,46.76-100.71C922.2,482.37,923.48,479,925.61,474Z"/><path class="cls-1" d="M640.69,332.54c14.56,4.48,17.48,15.95,17.08,30.27-.42,14.86-.1,29.76-.1,45.75-7.3,0-15.64,1.21-23.47-.57-3.34-.76-7.53-7.54-8-12-1.47-14.14-1.33-28.51-1.83-42.79-.31-8.6-.67-9-9.44-10.94,0,17.74-.09,35.28,0,52.83.09,13.68,0,14-11.49,13.94H580.24c0-4.44,0-8,0-11.65-.08-39.49,0-79-.4-118.47-.1-8.92,2.31-12.3,10.08-11.83,15,.9,30,.25,44.9,1.92,10,1.13,19.82,4.89,21.91,19.42,3.08,21.44-.16,31.86-13.18,41.08A26.58,26.58,0,0,0,640.69,332.54ZM615.56,322.1c8.87-1.84,9.76-4.84,8.74-25.25-.32-6.42-2.11-10.27-8.74-9.2Z"/><path class="cls-1" d="M572.33,409.72c-8.8,0-17.07.94-25-.48-3.12-.55-7.42-6.06-7.93-9.9-2-14.43-2.54-29.1-3.66-43.68-.45-5.81-.56-12-8.92-11.53v65.74H494.2c-.75-13.73-1.67-27.53-2.23-41.35-1.14-28.58-2.08-57.18-3.13-85.77-.41-11.13,1.28-13.22,10.84-13.26,13.25,0,26.53-.86,39.74,0,27.38,1.76,30.58,18.95,25.9,46.95-1.05,6.3-8.37,11.21-13.08,17.11,16.6,3.36,16.89,19.29,17.35,35.62C570,382.35,571.33,395.5,572.33,409.72Zm-47.24-85.93c.92.61,4.55-.43,5.47.18,1.68-3.22,1.79-4.64,2.11-8a91.56,91.56,0,0,0-.55-20.19,3,3,0,0,0-.2-.77c-1.51-4-7.9-2.81-8,1.46,0,.05,0,.1,0,.14C523.93,305.65,524.63,314.72,525.09,323.79Z"/><path class="cls-1" d="M758.35,409.19c-9.74,0-18.82.67-27.75-.42-2.61-.31-5.91-5.2-6.87-8.73-1.75-6.42-2.18-13.36-2.77-20.13-.51-5.82-3.18-9.46-7.89-8.17-3.26.89-7.28,4-8.55,7.38-2.31,6.12-2,13.56-4.37,19.64-1.55,4-5.56,8.78-8.94,9.33-8.32,1.34-16.91.43-26,.43C673.14,368,681,328.2,688.63,288.37c4.75-24.82,3.73-20.87,22.79-20.76,27.64.17,24.78-2.66,29.67,30.06C746.59,334.48,752.46,371.22,758.35,409.19Zm-49.44-58.66c8.82-.74,9.57-6.94,4.28-32.72C711.61,329.9,710.32,339.77,708.91,350.53Z"/><path class="cls-1" d="M931.94,418.52c-8.55,0-16.17,0-23.79,0-6.25.06-9.11-3.81-9.44-10.65-.3-6.11-.58-12.23-.7-18.36-.12-5.63-.94-9.79-7.19-10.13-5.48-.31-9,.68-10.2,7.75a135.06,135.06,0,0,1-5,21.62c-1,3-4.66,6.76-7.15,6.82-8.75.19-17.51-1.09-27.47-1.91,1.79-7.88,3.21-15,5-22,9-34.82,18.33-69.54,27.05-104.46,2.53-10.11,7-13.93,16-12.2,7.52,1.44,15.39.66,22.77,2.59,3.38.88,8.16,5.6,8.53,9.11,4.47,42.56,8.23,85.2,12.13,127.84A17.76,17.76,0,0,1,931.94,418.52Zm-36.86-90.15-1.66-.31c-6.3,12.28-9.21,25.07-6.78,28.78h0a4.45,4.45,0,0,0,6.27-.14,5.84,5.84,0,0,0,1.93-3.3C895.45,345.11,895.08,336.72,895.08,328.37Z"/><path class="cls-1" d="M478.51,290c-7.21,0-14,.2-20.69-.06-6.5-.25-9.38,2.92-8.4,10.47.22,1.68.43,3.37.63,5.06,2.57,21.49,2.57,21.64,21.3,21.28,5-.1,8.57.61,9.23,7.6.64,6.83-1.26,10.58-7.46,10.6-6.42,0-12.83,0-20.47,0,.91,15.14,1.34,28.65,2.85,42,.3,2.66,4.49,5.9,7.34,6.72,3.55,1,7.58-.1,11.39-.49,13.87-1.44,15.08.08,13,18.34-19.64,1.05-39.53,2.37-59.43,2.75-1.94,0-5.43-5.6-5.71-8.89-1.88-22.37-3.11-44.82-4.54-67.25-1.14-18-2.06-36-3.5-54-.57-7.07.53-10.7,7.56-10.94,16.19-.54,32.35-2.07,48.54-2.76C479.7,270,481.23,273.61,478.51,290Z"/><path class="cls-1" d="M799.86,393c9.29.53,17.4,1.12,25.51,1.42,13.61.49,14.45,1.73,10.64,19.16l-76.09-3.33c7.86-43.85,30.46-79,43.61-120.1-9.22-.72-17.87-1.74-26.54-1.93-5.37-.12-6.34-3.24-6.2-8.39.13-4.92-.23-10.32,5.82-10.16,20,.55,40,1.23,60,2.25,5.63.29,6.48,5.23,5,10.45-2.94,10.31-5.61,20.8-9.45,30.67-8.92,22.9-18.49,45.48-27.77,68.21C803,384.52,801.79,387.92,799.86,393Z"/><path class="cls-1" d="M353.49,298c-4.37,0-7.61-.32-10.79.07-6.78.84-8.81-3.77-9.34-10.28-.55-6.88,3.3-9,8.16-9.36q27.72-2.13,55.47-3.92c5.83-.38,8.41,2.72,8.42,9.8,0,6.8-1.83,10.13-8,9.7-3.13-.22-6.3.44-9.92.74,3.27,36.14,6.33,71.29,9.71,106.41,1.42,14.78,1.37,15-11.64,16.31-20.09,2-21.64,7.15-23.56-22C359.85,363.33,356.44,331.29,353.49,298Z"/><path class="cls-1" d="M535.77,84.49c-3.85,13.47-6.69,24.44-10.12,35.16-11.14,34.79-18.8,70.17-14.83,107.72.22,2,.66,4.6-.17,6-1.61,2.73-3.94,6.47-6.17,6.66-1.84.15-5.64-4.12-5.73-6.56-1.14-34-2-68.14,10.43-100.34a18.1,18.1,0,0,0,.8-10.31,51.5,51.5,0,0,0-4.91,5c-12.4,16.36-25.33,32.26-36.9,49.38-10.63,15.71-17.06,34-19.13,54.11-1,9.71-2.84,10.72-12.13,7.07-.91-16.36,3.18-31.51,9.4-45.93,19.05-44.15,49.15-76.74,83.05-105.25C530.45,86.29,532,86.06,535.77,84.49Z"/><path class="cls-1" d="M754.84,123.25c1.3,4.89,2,9.61,3.75,13.75,10.22,24.46,11.22,50.48,10.19,76.9-.25,6.47.15,13-.59,19.39-.31,2.59-2.85,4.84-4.37,7.25-1.86-2.31-5.13-4.46-5.35-7-1.71-19-1.08-38.43-4.51-56.92-5-26.81-12.74-52.94-19.32-79.35-.93-3.71-1.95-7.39-3-11.58,2.19,0,3.28-.4,3.83.06,30.08,25,59,51.8,77.23,89.82,7.84,16.32,11.48,35.4,16.4,53.46.75,2.74-1.93,6.73-3,10.15-2.66-2.85-7.2-5.32-7.68-8.59-6.77-46.13-33-77.22-61-106.94C757,123.34,756.29,123.48,754.84,123.25Z"/><path class="cls-1" d="M598.22,60.18c18.9-10.12,53.1-10.15,71-.38-.51,2.77-1,5.72-1.61,8.6-3.76,16.7-7.58,33.38-11.17,49.19-12.87,0-24.82-.12-36.76,0-6.49.08-9.62-4.17-11.09-10.7C605.11,91.51,601.73,76,598.22,60.18ZM627,67.73c-12.73-1.91-14.46,0-11.93,12.81A141.06,141.06,0,0,0,619.33,97c.61,1.88,2.66,3.12,4.06,4.66,1.2-2,3.36-3.94,3.44-6C627.21,86.61,627,77.49,627,67.73Zm13.75-1.6c0,10.7-.21,19.84.15,29,.09,2.2,2.1,4.29,3.22,6.44,1.55-1.71,4-3.12,4.49-5.18,2.27-8.66,4-17.51,6.08-27.18Z"/><path class="cls-1" d="M745.15,180H695.37c-.59,0-1.59.08-1.69-.22-2.89-8-6.32-15.91-8.17-24.25-.66-3,1.67-8.93,4.08-10.44,13.88-8.69,28.2-16.46,43.51-25.2C737.13,140,741,159.21,745.15,180Zm-20.33-39.31c-8.31,4.61-15.55,8.21-22.34,12.7-1.71,1.12-3.07,5.36-2.63,7.65.37,1.92,3.55,4.25,5.6,4.4,7.22.53,14.49.21,22.47.21C726.83,156.83,725.93,149.57,724.82,140.68Z"/><path class="cls-1" d="M534.28,120.13c14.57,8.12,27.88,15.27,41,22.92,9.29,5.42,7.42,14.4,5.52,23.9-1.83,9.17-4.74,14.26-14,13.7-14.31-.86-28.69-.23-44.4-.23C526.38,160.14,530.14,141.11,534.28,120.13Zm33.62,45c-.43-19.47-16.17-16.18-24.74-25.44-1.94,9.37-3.55,17.11-5.27,25.44Z"/><path class="cls-1" d="M688.86,67.11l34.47,33.26-40.2,43.14c-6.5-5.91-13.15-11.34-19-17.71-1.69-1.83-2.53-7.34-1.4-9.57C671,99.88,679.8,83.94,688.86,67.11ZM676.7,117.23l3.15,3.12c12.12.81,16.15-12.44,24.94-18.79-3.54-3.92-5.82-7.16-8.7-9.32-1.47-1.09-5.26-1.19-5.91-.09C685.39,100.27,681.13,108.82,676.7,117.23Z"/><path class="cls-1" d="M584.55,143.75l-39.47-43.09L579,67.12C588,84.06,596.89,100,605,116.33c1.14,2.28-.15,8-2,10.11C597.58,132.53,591.28,137.58,584.55,143.75Zm-8.68-55.56-12.19,13.28c6.26,6.86,11.29,13.08,17,18.23,1.8,1.61,5.53.32,8.38.36-.08-2.63.62-5.77-.37-7.81C584.9,104.36,580.54,96.82,575.87,88.19Z"/><path class="cls-1" d="M772.26,152.8c5.25,5.89,9.82,10.09,13.4,15.2,12.84,18.29,21.45,38.84,23.54,62.62.42,4.73.55,8.88-5,9.67-5.24.75-6.43-2.77-7.28-7.65-1.73-9.82-3.82-19.56-5.76-29.34l-2.74.21v25.31c0,5.12.67,11.06-5.73,11.49s-6.35-5.28-6.66-10.57c-1.46-24.42-3-48.83-4.55-73.24A33.44,33.44,0,0,1,772.26,152.8Z"/><path class="cls-1" d="M681.45,178.69c-6.88,3.36-10.94,1-12.81-7.65-4.35-20.17-16.66-31.63-33.92-32-16.31-.4-30.23,12.16-34.81,31.45-.31,1.31,0,3.25-.73,3.91a97.32,97.32,0,0,1-7.67,6.11c-1.48-2.76-4.24-5.52-4.25-8.3-.08-17.9,14.31-37.39,32.08-44.31C650,115.91,682.81,142.63,681.45,178.69Z"/><path class="cls-1" d="M478.51,241.83V203.39l-2.41-.47q-2.84,12.66-5.66,25.31c-.59,2.63-.52,6-1.92,7.73a11.68,11.68,0,0,1-7.09,4.07c-1.05.14-3.65-3.65-3.57-5.53,1.41-33.07,14.36-59.23,37-82.08-1.77,28.69-3.49,55.09-5,81.5C489.32,243.64,483.31,238.53,478.51,241.83Z"/><path class="cls-1" d="M641,205.09,669.5,186.7c8.56,8.45,8.52,10.14-.35,16.21-5.56,3.81-11.18,7.53-16.9,11-6.78,4.15-12.51,8.71-12.2,19.2.07,2.06-3.41,4.27-5.25,6.41-1.84-2.21-5.29-4.46-5.25-6.63.18-10.39-5.37-15.09-12.2-19.25-5.72-3.48-11.61-6.86-16.64-11.44-2.28-2.09-2.64-7-3.87-10.6,3.44-.37,7.44-2.22,10.21-.82,7.16,3.61,13.78,8.66,21.92,14,0-4.93-.76-8.81.22-12,.93-3,3.67-5.25,5.61-7.83,2.08,2.58,5,4.79,6,7.84S641,199.93,641,205.09Z"/><path class="cls-1" d="M557.22,225.78c3,.25,6.07.69,9.1.7q21.57,0,43.15-.17c4.6,0,8.08,2.24,7,7.53-.53,2.74-4.49,6.48-7,6.54-19.36.5-38.74.24-58.11.17-5.3,0-8.22-2.92-8.18-9.32,0-7.08,0-14.15,0-22.77,8.29,0,15.8-.29,23.27.23,1.54.11,4.3,3.52,4.09,4.94-.42,2.86-2,6.5-4,7.79-2.6,1.65-6.15,1.3-9.28,1.81Z"/><path class="cls-1" d="M711.86,223.15c-3-.37-6.38.08-8.92-1.38a10.69,10.69,0,0,1-4.46-7.22c-.16-2,2.43-5.68,4.27-6.16,4.53-1.17,9.33-1.22,14-1.18,5.21,0,8.15,3.33,8.35,9.54,0,.68.07,1.36.11,2,1.35,21.33.86,21.93-17.4,21.89-14.73,0-29.45,0-44.18,0-4.7,0-10.35.84-10.6-7.06-.27-8.31,5.54-7.24,10.16-7.25,13.25,0,26.51.13,39.76.07a89.66,89.66,0,0,0,8.93-.88Z"/><path class="cls-1" d="M745.62,187.68v51H734.11V201.71c-9.49,0-17.92,0-26.35,0-4.55,0-9.39.18-9.54-7.2-.17-8,5.2-6.76,9.46-6.79C720,187.61,732.28,187.68,745.62,187.68Z"/><path class="cls-1" d="M568.67,201.78H535c0,10.16-.09,19.57,0,29,.07,5.29-.77,10.54-6.24,9.41-2.33-.48-5.42-5.6-5.61-8.81-.69-11.48-.12-23.06-.35-34.59-.13-6.49,2.08-9.28,7.77-9.15,10.26.24,20.54,0,30.8.08C571.44,187.8,572,188.82,568.67,201.78Z"/><path class="cls-1" d="M657.63,181.82c-3.65-2.66-8.16-4.49-10.81-8.13-8.55-11.75-17.93-11.34-25.39,1-1.8,3-6.54,3.56-9.93,5.25-.52-3.83-2.2-8.07-1.33-11.42,3.25-12.51,16.64-20.11,29.54-17.61C652.35,153.33,659.5,163.28,657.63,181.82Z"/></svg>